<svg width="16" height="4" viewBox="0 0 16 4" fill="none" xmlns="http://www.w3.org/2000/svg">
<path d="M2.06761 3.14C1.65694 3.14 1.30228 2.99067 1.00361 2.692C0.723609 2.39333 0.583609 2.02933 0.583609 1.6C0.583609 1.152 0.723609 0.788 1.00361 0.508C1.30228 0.228 1.65694 0.0879999 2.06761 0.0879999C2.47828 0.0879999 2.82361 0.228 3.10361 0.508C3.40228 0.788 3.55161 1.152 3.55161 1.6C3.55161 2.02933 3.40228 2.39333 3.10361 2.692C2.82361 2.99067 2.47828 3.14 2.06761 3.14ZM8.0012 3.14C7.59054 3.14 7.23587 2.99067 6.9372 2.692C6.6572 2.39333 6.5172 2.02933 6.5172 1.6C6.5172 1.152 6.6572 0.788 6.9372 0.508C7.23587 0.228 7.59054 0.0879999 8.0012 0.0879999C8.41187 0.0879999 8.7572 0.228 9.0372 0.508C9.33587 0.788 9.4852 1.152 9.4852 1.6C9.4852 2.02933 9.33587 2.39333 9.0372 2.692C8.7572 2.99067 8.41187 3.14 8.0012 3.14ZM13.9348 3.14C13.5241 3.14 13.1695 2.99067 12.8708 2.692C12.5908 2.39333 12.4508 2.02933 12.4508 1.6C12.4508 1.152 12.5908 0.788 12.8708 0.508C13.1695 0.228 13.5241 0.0879999 13.9348 0.0879999C14.3455 0.0879999 14.6908 0.228 14.9708 0.508C15.2695 0.788 15.4188 1.152 15.4188 1.6C15.4188 2.02933 15.2695 2.39333 14.9708 2.692C14.6908 2.99067 14.3455 3.14 13.9348 3.14Z" fill="#1E1E1E"/>
</svg>
