<svg width="230" height="46" viewBox="0 0 230 46" fill="none" xmlns="http://www.w3.org/2000/svg">
<path d="M0.512 36V2.4H5.648L20.336 26.928H17.648L32.096 2.4H37.232L37.28 36H31.376L31.328 11.664H32.576L20.288 32.16H17.504L5.024 11.664H6.464V36H0.512ZM47.8918 45.648C46.6438 45.648 45.3958 45.44 44.1478 45.024C42.8998 44.608 41.8598 44.032 41.0277 43.296L43.4277 38.88C44.0358 39.424 44.7238 39.856 45.4918 40.176C46.2598 40.496 47.0438 40.656 47.8438 40.656C48.9318 40.656 49.8118 40.384 50.4838 39.84C51.1558 39.296 51.7798 38.384 52.3558 37.104L53.8438 33.744L54.3238 33.024L64.0198 10.368H69.7798L57.7798 38.064C56.9798 39.984 56.0838 41.504 55.0918 42.624C54.1318 43.744 53.0438 44.528 51.8278 44.976C50.6438 45.424 49.3318 45.648 47.8918 45.648ZM53.1718 36.912L41.6037 10.368H47.8438L57.2518 32.496L53.1718 36.912ZM74.1058 36V2.4H87.9298C90.9058 2.4 93.4498 2.88 95.5618 3.84C97.7058 4.8 99.3538 6.176 100.506 7.968C101.658 9.76 102.234 11.888 102.234 14.352C102.234 16.816 101.658 18.944 100.506 20.736C99.3538 22.528 97.7058 23.904 95.5618 24.864C93.4498 25.824 90.9058 26.304 87.9298 26.304H77.5618L80.3458 23.376V36H74.1058ZM80.3458 24.048L77.5618 21.024H87.6418C90.3938 21.024 92.4578 20.448 93.8337 19.296C95.2418 18.112 95.9458 16.464 95.9458 14.352C95.9458 12.208 95.2418 10.56 93.8337 9.408C92.4578 8.256 90.3938 7.68 87.6418 7.68H77.5618L80.3458 4.608V24.048ZM122.902 10.08C124.95 10.08 126.774 10.48 128.374 11.28C130.006 12.08 131.286 13.312 132.214 14.976C133.142 16.608 133.606 18.72 133.606 21.312V36H127.606V22.08C127.606 19.808 127.062 18.112 125.974 16.992C124.918 15.872 123.43 15.312 121.51 15.312C120.102 15.312 118.854 15.6 117.766 16.176C116.678 16.752 115.83 17.616 115.222 18.768C114.646 19.888 114.358 21.312 114.358 23.04V36H108.358V0.383998H114.358V17.28L113.062 15.168C113.958 13.536 115.254 12.288 116.95 11.424C118.678 10.528 120.662 10.08 122.902 10.08ZM152.784 36.336C150.16 36.336 147.824 35.776 145.776 34.656C143.728 33.504 142.112 31.936 140.928 29.952C139.744 27.968 139.152 25.712 139.152 23.184C139.152 20.624 139.744 18.368 140.928 16.416C142.112 14.432 143.728 12.88 145.776 11.76C147.824 10.64 150.16 10.08 152.784 10.08C155.44 10.08 157.792 10.64 159.84 11.76C161.92 12.88 163.536 14.416 164.688 16.368C165.872 18.32 166.464 20.592 166.464 23.184C166.464 25.712 165.872 27.968 164.688 29.952C163.536 31.936 161.92 33.504 159.84 34.656C157.792 35.776 155.44 36.336 152.784 36.336ZM152.784 31.2C154.256 31.2 155.568 30.88 156.72 30.24C157.872 29.6 158.768 28.672 159.408 27.456C160.08 26.24 160.416 24.816 160.416 23.184C160.416 21.52 160.08 20.096 159.408 18.912C158.768 17.696 157.872 16.768 156.72 16.128C155.568 15.488 154.272 15.168 152.832 15.168C151.36 15.168 150.048 15.488 148.896 16.128C147.776 16.768 146.88 17.696 146.208 18.912C145.536 20.096 145.2 21.52 145.2 23.184C145.2 24.816 145.536 26.24 146.208 27.456C146.88 28.672 147.776 29.6 148.896 30.24C150.048 30.88 151.344 31.2 152.784 31.2ZM186.746 10.08C188.794 10.08 190.618 10.48 192.218 11.28C193.85 12.08 195.13 13.312 196.058 14.976C196.986 16.608 197.45 18.72 197.45 21.312V36H191.45V22.08C191.45 19.808 190.906 18.112 189.818 16.992C188.762 15.872 187.274 15.312 185.354 15.312C183.946 15.312 182.698 15.6 181.61 16.176C180.522 16.752 179.674 17.616 179.066 18.768C178.49 19.888 178.202 21.312 178.202 23.04V36H172.202V10.368H177.914V17.28L176.906 15.168C177.802 13.536 179.098 12.288 180.794 11.424C182.522 10.528 184.506 10.08 186.746 10.08ZM217.156 36.336C214.308 36.336 211.812 35.776 209.668 34.656C207.556 33.504 205.908 31.936 204.724 29.952C203.572 27.968 202.996 25.712 202.996 23.184C202.996 20.624 203.556 18.368 204.676 16.416C205.828 14.432 207.396 12.88 209.38 11.76C211.396 10.64 213.684 10.08 216.244 10.08C218.74 10.08 220.964 10.624 222.916 11.712C224.868 12.8 226.404 14.336 227.524 16.32C228.644 18.304 229.204 20.64 229.204 23.328C229.204 23.584 229.188 23.872 229.156 24.192C229.156 24.512 229.14 24.816 229.108 25.104H207.748V21.12H225.94L223.588 22.368C223.62 20.896 223.316 19.6 222.676 18.48C222.036 17.36 221.156 16.48 220.036 15.84C218.948 15.2 217.684 14.88 216.244 14.88C214.772 14.88 213.476 15.2 212.356 15.84C211.268 16.48 210.404 17.376 209.764 18.528C209.156 19.648 208.852 20.976 208.852 22.512V23.472C208.852 25.008 209.204 26.368 209.908 27.552C210.612 28.736 211.604 29.648 212.884 30.288C214.164 30.928 215.636 31.248 217.3 31.248C218.74 31.248 220.036 31.024 221.188 30.576C222.34 30.128 223.364 29.424 224.26 28.464L227.476 32.16C226.324 33.504 224.868 34.544 223.108 35.28C221.38 35.984 219.396 36.336 217.156 36.336Z" fill="white"/>
</svg>
