<svg width="40" height="35" viewBox="0 0 40 35" fill="none" xmlns="http://www.w3.org/2000/svg">
<path d="M25.4573 31.0346L25.4561 31.0355C24.4094 31.8624 23.4441 32.6129 22.5049 33.1618C21.5653 33.7109 20.7463 34.0002 20 34.0002C19.254 34.0002 18.435 33.7106 17.4951 33.1613C16.5555 32.6122 15.5903 31.8621 14.543 31.0367C13.9691 30.5842 13.3818 30.1315 12.7885 29.6741C10.2786 27.7391 7.66137 25.7213 5.50318 23.2914C2.8691 20.3256 1 16.825 1 12.2742C1 7.78526 3.53714 3.99491 7.04068 2.39368C10.4811 0.821294 15.0352 1.2864 19.2794 5.69751L19.9999 6.44639L20.7205 5.69759C24.9647 1.28748 29.5188 0.822763 32.9593 2.39541C36.4629 3.99689 39 7.78727 39 12.2762C39 16.8261 37.1314 20.3266 34.4976 23.2921C32.3358 25.7262 29.7129 27.7466 27.1984 29.6835C26.6097 30.137 26.0268 30.586 25.4573 31.0346Z" stroke="white" stroke-width="2"/>
</svg>
