<svg width="48" height="48" viewBox="0 0 48 48" fill="none" xmlns="http://www.w3.org/2000/svg">
<path opacity="0.3" fill-rule="evenodd" clip-rule="evenodd" d="M12.5256 6.6H10.08C9.60264 6.6 9.1448 6.41036 8.80724 6.07279C8.46967 5.73523 8.28003 5.27739 8.28003 4.8C8.28003 4.32261 8.46967 3.86477 8.80724 3.52721C9.1448 3.18964 9.60264 3 10.08 3H13.9272C14.3277 3.00004 14.7168 3.13366 15.0328 3.37969C15.3488 3.62573 15.5738 3.97013 15.672 4.3584L19.2768 18.6072C19.9915 18.2087 20.7962 17.9996 21.6144 18H40.788C41.5143 18.0017 42.2307 18.1671 42.8842 18.484C43.5376 18.801 44.1111 19.2612 44.562 19.8304C45.013 20.3997 45.3297 21.0633 45.4886 21.7719C45.6476 22.4805 45.6446 23.2159 45.48 23.9232L43.6008 32.2296C43.3622 33.2979 42.7672 34.2532 41.9136 34.9384C41.06 35.6236 39.9986 35.998 38.904 36H23.496C22.4021 35.998 21.3413 35.6239 20.4882 34.9391C19.635 34.2543 19.0403 33.2996 18.8016 32.232L16.92 23.9208C16.8943 23.8056 16.8727 23.6895 16.8552 23.5728C16.8043 23.465 16.7641 23.3525 16.7352 23.2368L12.5256 6.6ZM22.2 44.4C23.3139 44.4 24.3822 43.9575 25.1699 43.1699C25.9575 42.3822 26.4 41.3139 26.4 40.2C26.4 39.0861 25.9575 38.0178 25.1699 37.2302C24.3822 36.4425 23.3139 36 22.2 36C21.0861 36 20.0178 36.4425 19.2302 37.2302C18.4425 38.0178 18 39.0861 18 40.2C18 41.3139 18.4425 42.3822 19.2302 43.1699C20.0178 43.9575 21.0861 44.4 22.2 44.4ZM39 44.4C40.1139 44.4 41.1822 43.9575 41.9699 43.1699C42.7575 42.3822 43.2 41.3139 43.2 40.2C43.2 39.0861 42.7575 38.0178 41.9699 37.2302C41.1822 36.4425 40.1139 36 39 36C37.8861 36 36.8178 36.4425 36.0302 37.2302C35.2425 38.0178 34.8 39.0861 34.8 40.2C34.8 41.3139 35.2425 42.3822 36.0302 43.1699C36.8178 43.9575 37.8861 44.4 39 44.4Z" fill="#E4E4E4"/>
<path d="M8.90885 5.99961H6.00005C5.68179 5.99961 5.37656 5.87318 5.15152 5.64814C4.92648 5.42309 4.80005 5.11787 4.80005 4.79961C4.80005 4.48135 4.92648 4.17612 5.15152 3.95108C5.37656 3.72604 5.68179 3.59961 6.00005 3.59961H9.84725C10.1149 3.59968 10.3749 3.68925 10.5858 3.85407C10.7967 4.01889 10.9465 4.24949 11.0112 4.50921L15.564 22.7492C15.6329 23.055 15.5793 23.3756 15.4148 23.6424C15.2503 23.9092 14.9879 24.1011 14.6838 24.177C14.3797 24.2528 14.0579 24.2067 13.7874 24.0484C13.5168 23.8902 13.3189 23.6323 13.236 23.33L8.90885 5.99961Z" fill="white"/>
<path fill-rule="evenodd" clip-rule="evenodd" d="M37.1881 17.9996H18.0121C17.6521 17.9996 17.292 18.0404 16.9392 18.1196C15.6909 18.412 14.6092 19.1871 13.9309 20.2751C13.2526 21.3632 13.033 22.6756 13.3201 23.9252L15.1993 32.2316C15.438 33.2996 16.0331 34.2546 16.8867 34.9395C17.7404 35.6243 18.8017 35.9982 19.896 35.9996H35.3089C36.4026 35.9968 37.4629 35.6223 38.3159 34.9377C39.1688 34.253 39.7638 33.2988 40.0033 32.2316L41.8825 23.9228C42.0471 23.2153 42.05 22.4798 41.8909 21.771C41.7318 21.0622 41.4149 20.3984 40.9637 19.8291C40.5125 19.2598 39.9387 18.7996 39.2849 18.4829C38.6312 18.1661 37.9145 18.0009 37.1881 17.9996ZM17.4792 20.4596C17.6548 20.4194 17.8344 20.3993 18.0145 20.3996H37.1881C37.5539 20.4016 37.9147 20.4862 38.2433 20.6471C38.572 20.8079 38.8601 21.0408 39.0862 21.3285C39.3122 21.6162 39.4705 21.9512 39.5491 22.3086C39.6277 22.6659 39.6246 23.0364 39.5401 23.3924L37.6585 31.7012C37.5398 32.2375 37.2424 32.7175 36.815 33.0624C36.3876 33.4074 35.8557 33.5968 35.3065 33.5996H19.896C18.7728 33.5996 17.7961 32.8124 17.5441 31.7012L15.6648 23.3924C15.5192 22.7627 15.6285 22.101 15.9688 21.5516C16.3092 21.0022 16.8506 20.6096 17.4792 20.4596Z" fill="white"/>
<path d="M40.8001 40.1996C40.8001 41.3135 40.3576 42.3818 39.5699 43.1695C38.7822 43.9571 37.714 44.3996 36.6001 44.3996C35.4861 44.3996 34.4179 43.9571 33.6302 43.1695C32.8426 42.3818 32.4001 41.3135 32.4001 40.1996C32.4001 39.0857 32.8426 38.0174 33.6302 37.2298C34.4179 36.4421 35.4861 35.9996 36.6001 35.9996C37.714 35.9996 38.7822 36.4421 39.5699 37.2298C40.3576 38.0174 40.8001 39.0857 40.8001 40.1996ZM24.0001 40.1996C24.0001 40.7512 23.8914 41.2973 23.6803 41.8069C23.4693 42.3165 23.1599 42.7795 22.7699 43.1695C22.3799 43.5595 21.9169 43.8688 21.4073 44.0799C20.8978 44.291 20.3516 44.3996 19.8001 44.3996C19.2485 44.3996 18.7023 44.291 18.1928 44.0799C17.6832 43.8688 17.2202 43.5595 16.8302 43.1695C16.4402 42.7795 16.1308 42.3165 15.9198 41.8069C15.7087 41.2973 15.6 40.7512 15.6 40.1996C15.6 39.0857 16.0426 38.0174 16.8302 37.2298C17.6179 36.4421 18.6861 35.9996 19.8001 35.9996C20.914 35.9996 21.9822 36.4421 22.7699 37.2298C23.5576 38.0174 24.0001 39.0857 24.0001 40.1996Z" fill="white"/>
</svg>
