<svg width="100" height="40" viewBox="0 0 100 40" fill="none" xmlns="http://www.w3.org/2000/svg">
<rect width="100" height="40" rx="20" fill="url(#paint0_linear_18_29)"/>
<path d="M65.0001 35.0003L57.7618 27.762M57.7618 27.762C58.9999 26.5239 59.9821 25.054 60.6521 23.4363C61.3222 21.8185 61.6671 20.0847 61.6671 18.3337C61.6671 16.5827 61.3222 14.8488 60.6521 13.2311C59.9821 11.6134 58.9999 10.1435 57.7618 8.90534C56.5236 7.6672 55.0537 6.68505 53.436 6.01497C51.8183 5.34489 50.0844 5 48.3334 5C46.5824 5 44.8486 5.34489 43.2309 6.01497C41.6131 6.68505 40.1432 7.6672 38.9051 8.90534C36.4045 11.4059 34.9998 14.7974 34.9998 18.3337C34.9998 21.87 36.4045 25.2615 38.9051 27.762C41.4056 30.2626 44.7971 31.6674 48.3334 31.6674C51.8697 31.6674 55.2612 30.2626 57.7618 27.762Z" stroke="white" stroke-width="2.5" stroke-linecap="round" stroke-linejoin="round"/>
<defs>
<linearGradient id="paint0_linear_18_29" x1="-9.31322e-08" y1="20" x2="100" y2="20" gradientUnits="userSpaceOnUse">
<stop stop-color="#3FBEFF"/>
<stop offset="1" stop-color="#04CCA8"/>
</linearGradient>
</defs>
</svg>
