<svg width="36" height="36" viewBox="0 0 36 36" fill="none" xmlns="http://www.w3.org/2000/svg">
<rect width="36" height="36" rx="18" fill="white"/>
<path d="M17.176 24.096C16.3653 24.096 15.5973 23.968 14.872 23.712C14.1573 23.4453 13.5813 23.0933 13.144 22.656L13.704 21.744C14.0667 22.1173 14.552 22.4267 15.16 22.672C15.7787 22.9173 16.4507 23.04 17.176 23.04C18.104 23.04 18.8133 22.8373 19.304 22.432C19.8053 22.0267 20.056 21.4827 20.056 20.8C20.056 20.1173 19.8107 19.5733 19.32 19.168C18.84 18.7627 18.0773 18.56 17.032 18.56H16.232V17.712L19.688 13.376L19.848 13.824H13.608V12.8H20.808V13.616L17.352 17.952L16.792 17.584H17.224C18.568 17.584 19.5707 17.8827 20.232 18.48C20.904 19.0773 21.24 19.8453 21.24 20.784C21.24 21.4133 21.0907 21.9787 20.792 22.48C20.4933 22.9813 20.04 23.376 19.432 23.664C18.8347 23.952 18.0827 24.096 17.176 24.096Z" fill="#00A6FB"/>
</svg>
