<svg width="128" height="27" viewBox="0 0 128 27" fill="none" xmlns="http://www.w3.org/2000/svg">
<g clip-path="url(#clip0_76_468)">
<mask id="mask0_76_468" style="mask-type:luminance" maskUnits="userSpaceOnUse" x="0" y="0" width="128" height="27">
<path d="M128 0H0V27H128V0Z" fill="white"/>
</mask>
<g mask="url(#mask0_76_468)">
<path d="M50.0777 7.211V10.769C47.4291 10.351 45.2985 11.9631 45.3619 14.7316V21.3479H42.202V7.41667H45.3619V9.51079H45.4034C45.9208 8.75331 46.6234 8.14432 47.4426 7.74324C48.2617 7.34215 49.1695 7.1626 50.0777 7.22207" fill="white"/>
<path d="M51.874 4.70621C49.9225 2.66076 52.8857 -0.236044 54.8853 1.71212C56.852 3.75536 53.8473 6.63226 51.874 4.70621ZM51.7909 7.40619H54.9486V21.3375H51.7887L51.7909 7.40619Z" fill="white"/>
<path d="M60.7395 20.6781C57.337 18.8936 56.4302 13.8916 58.244 10.6499C60.5057 6.32899 67.291 6.09238 70.2632 9.79187L68.1128 11.6759C65.5864 8.67738 60.3877 10.128 60.5538 14.3693C60.4249 18.6459 65.4838 20.0435 68.1411 17.16L70.3265 19.1148C68.1411 21.6312 63.6809 22.3366 60.7548 20.6781" fill="white"/>
<path d="M100.533 12.9023H97.2247C98.1228 15.5847 96.351 18.7491 93.4265 18.6672C90.4919 18.7734 88.7195 15.5493 89.6182 12.9023H86.3158C84.5676 24.4432 102.286 24.4653 100.533 12.9023Z" fill="white"/>
<path d="M114.631 7.40527L107.061 26.9996H103.737L106.219 20.5647L100.619 7.40527H103.942L107.749 16.8121H107.777L111.322 7.40527H114.631Z" fill="white"/>
<path d="M39.4507 4.21084C37.3288 -0.050339 30.3774 0.00936604 28.3058 4.27276C27.8026 5.25749 27.536 6.34846 27.5279 7.45704V21.3506H30.8058V13.527C37.1125 16.4438 42.4008 10.3052 39.4463 4.21084H39.4507ZM36.2056 10.1504C34.984 11.5037 32.6108 11.4949 31.4111 10.1305C30.1436 8.8391 30.1567 6.30052 31.4111 5.00691C32.5627 3.64696 35.0364 3.63811 36.2187 4.98701C37.4862 6.23861 37.5036 8.89439 36.2078 10.1504" fill="white"/>
<path d="M97.0523 8.96926C97.1837 9.00517 97.3076 9.067 97.4154 9.15124C97.5239 9.23548 97.6141 9.34051 97.6822 9.46025C97.7502 9.58 97.7947 9.7121 97.8122 9.84912C97.8291 9.98608 97.8203 10.1252 97.7839 10.2584L99.4405 10.7118C100.275 7.12286 95.1795 5.73414 94.1198 9.25897L95.7757 9.70123C95.8114 9.56778 95.8733 9.44277 95.9562 9.33329C96.0397 9.22387 96.1442 9.13214 96.2627 9.06329C96.3806 8.9945 96.512 8.95002 96.6474 8.9324C96.7828 8.91472 96.9203 8.92424 97.0523 8.96042" fill="white"/>
<path d="M89.0584 10.2693C88.735 8.92048 90.6759 8.38973 91.0686 9.72097L92.7232 9.27871C91.6635 5.7406 86.5671 7.14476 87.4045 10.7315L89.0584 10.2693Z" fill="white"/>
<path d="M84.6248 14.2168C84.8822 6.47724 74.5223 4.46938 71.7312 11.4504C70.4748 14.701 71.5129 19.0441 74.6664 20.6915C77.5835 22.3234 81.7684 21.576 83.9646 19.1082C83.9431 19.0971 81.8035 17.1711 81.7792 17.1534C79.6686 19.6146 75.0747 19.0087 74.5021 15.4861H84.5373C84.5979 15.0659 84.6262 14.6414 84.6201 14.2168H84.6248ZM74.5526 12.9055C75.3347 9.21924 80.7498 9.12636 81.4518 12.9055H74.5526Z" fill="white"/>
<path d="M127.998 14.2168C128.253 6.47724 117.895 4.46938 115.105 11.4504C113.851 14.701 114.886 19.0441 118.04 20.6915C120.957 22.3234 125.144 21.576 127.34 19.1082C127.316 19.0971 125.179 17.1711 125.155 17.1534C123.042 19.6146 118.448 19.0087 117.876 15.4861H127.921C127.984 15.0661 128.013 14.6416 128.007 14.2168H127.998ZM117.936 12.9055C118.721 9.21924 124.136 9.12636 124.838 12.9055H117.936Z" fill="white"/>
<path d="M18.8261 7.86768C18.3148 -2.6316 3.52921 -2.61612 3.03097 7.86768H0L1.3942 20.3615C1.61273 22.3517 2.79714 23.8753 5.25557 23.8708H16.619C19.0709 23.8708 20.2553 22.3738 20.4803 20.8038L21.8636 7.86768H18.8261ZM5.99638 20.22C5.95705 18.5483 5.8303 13.3207 5.79752 11.7441C5.79752 10.0414 5.47191 7.39666 6.18431 5.80673C6.57854 4.91878 7.20755 4.15831 8.00195 3.60928C8.7963 3.06025 9.72517 2.74399 10.686 2.69543C19.3506 3.00944 16.7457 15.7974 8.73674 12.7259C8.80229 14.5745 8.95522 18.3294 9.01423 20.22H5.99638Z" fill="white"/>
<path d="M10.1178 10.232C10.4885 10.3652 10.8859 10.4042 11.2751 10.3457C11.6642 10.2873 12.0332 10.133 12.3496 9.89657C12.6661 9.66018 12.9205 9.34874 13.0902 8.98971C13.2601 8.63061 13.3402 8.23485 13.3236 7.83714C13.2668 6.05038 11.2301 4.92261 9.71575 5.84694C9.32407 6.08169 9.00629 6.42417 8.7994 6.8345C8.59251 7.2449 8.50507 7.70626 8.54717 8.16492C8.58935 8.62359 8.75932 9.06078 9.03735 9.42548C9.31537 9.79026 9.69008 10.0676 10.1178 10.2253" fill="white"/>
</g>
</g>
<defs>
<clipPath id="clip0_76_468">
<rect width="128" height="27" fill="white"/>
</clipPath>
</defs>
</svg>
