<svg width="48" height="48" viewBox="0 0 48 48" fill="none" xmlns="http://www.w3.org/2000/svg">
<path d="M29.4573 37.0346L29.4561 37.0355C28.4094 37.8624 27.4441 38.6129 26.5049 39.1618C25.5653 39.7109 24.7463 40.0002 24 40.0002C23.254 40.0002 22.435 39.7106 21.4951 39.1613C20.5555 38.6122 19.5903 37.8621 18.543 37.0367C17.9691 36.5842 17.3818 36.1315 16.7885 35.6741C14.2786 33.7391 11.6614 31.7213 9.50318 29.2914C6.8691 26.3256 5 22.825 5 18.2742C5 13.7853 7.53714 9.99491 11.0407 8.39368C14.4811 6.82129 19.0352 7.2864 23.2794 11.6975L23.9999 12.4464L24.7205 11.6976C28.9647 7.28748 33.5188 6.82276 36.9593 8.39541C40.4629 9.99689 43 13.7873 43 18.2762C43 22.8261 41.1314 26.3266 38.4976 29.2921C36.3358 31.7262 33.7129 33.7466 31.1984 35.6835C30.6097 36.137 30.0268 36.586 29.4573 37.0346Z" stroke="white" stroke-width="2"/>
</svg>
